<svg width="26" height="26" viewBox="0 0 26 26" fill="none" xmlns="http://www.w3.org/2000/svg">
<path fill-rule="evenodd" clip-rule="evenodd" d="M13.0281 2.16675C7.05998 2.16675 2.2229 7.00383 2.2229 12.9719C2.2229 17.7451 5.31798 21.7957 9.61232 23.2257C10.1529 23.3232 10.3479 22.9906 10.3479 22.7046C10.3479 22.4478 10.3392 21.7675 10.336 20.8673C7.32973 21.5194 6.6949 19.4178 6.6949 19.4178C6.20523 18.1698 5.49565 17.8372 5.49565 17.8372C4.51523 17.1666 5.5704 17.1818 5.5704 17.1818C6.6559 17.2576 7.22465 18.2954 7.22465 18.2954C8.18882 19.9464 9.75532 19.4698 10.3685 19.1935C10.4671 18.4948 10.7487 18.0181 11.0564 17.7483C8.6579 17.4764 6.1359 16.5491 6.1359 12.4075C6.1359 11.2299 6.55732 10.2636 7.24523 9.50958C7.13582 9.2355 6.76207 8.13592 7.35248 6.64958C7.35248 6.64958 8.25923 6.35817 10.323 7.75567C11.2044 7.51589 12.1136 7.3935 13.027 7.39167C13.9404 7.39315 14.8497 7.51554 15.731 7.75567C17.7958 6.35708 18.7015 6.64958 18.7015 6.64958C19.2919 8.13592 18.9214 9.2355 18.8087 9.50958C19.5021 10.2636 19.9181 11.2288 19.9181 12.4075C19.9181 16.5599 17.3939 17.4721 14.9867 17.7397C15.3713 18.0733 15.718 18.732 15.718 19.7395C15.718 21.1847 15.705 22.3503 15.705 22.7046C15.705 22.9938 15.8978 23.3297 16.4492 23.2235C20.7414 21.7913 23.8332 17.744 23.8332 12.9719C23.8332 7.00383 18.9962 2.16675 13.0281 2.16675Z" fill="#D3E97A"/>
</svg>
