<svg width="26" height="26" viewBox="0 0 26 26" fill="none" xmlns="http://www.w3.org/2000/svg">
<path d="M5.39817 7.79682C6.70726 7.79682 7.7685 6.73558 7.7685 5.42649C7.7685 4.11739 6.70726 3.05615 5.39817 3.05615C4.08907 3.05615 3.02783 4.11739 3.02783 5.42649C3.02783 6.73558 4.08907 7.79682 5.39817 7.79682Z" fill="#D3E97A"/>
<path d="M10.0069 9.59282V22.7434H14.0899V16.2402C14.0899 14.5242 14.4128 12.8623 16.5404 12.8623C18.6389 12.8623 18.6649 14.8242 18.6649 16.3485V22.7445H22.7501V15.5327C22.7501 11.9902 21.9874 9.26782 17.8469 9.26782C15.859 9.26782 14.5265 10.3587 13.9816 11.3912H13.9264V9.59282H10.0069ZM3.35303 9.59282H7.44261V22.7434H3.35303V9.59282Z" fill="#D3E97A"/>
</svg>
